<?xml version="1.0" standalone="no"?>
<!DOCTYPE svg PUBLIC "-//W3C//DTD SVG 20010904//EN"
 "http://www.w3.org/TR/2001/REC-SVG-20010904/DTD/svg10.dtd">
<svg version="1.0" xmlns="http://www.w3.org/2000/svg"
 width="1024.000000pt" height="1024.000000pt" viewBox="0 0 1024.000000 1024.000000"
 preserveAspectRatio="xMidYMid meet">
<metadata>
Created by potrace 1.16, written by Peter Selinger 2001-2019
</metadata>
<g transform="translate(0.000000,1024.000000) scale(0.100000,-0.100000)"
fill="#000000" stroke="none">
<path d="M8240 9698 c-52 -19 -193 -158 -2343 -2307 -1258 -1257 -2298 -2302
-2312 -2321 -13 -19 -205 -457 -426 -973 -394 -921 -401 -939 -401 -1005 -1
-83 13 -134 51 -194 63 -99 178 -154 305 -146 67 5 126 29 974 392 497 213
923 396 945 407 63 31 4629 4596 4665 4664 24 45 27 61 27 150 0 89 -3 105
-27 150 -19 36 -181 204 -580 602 -625 624 -599 603 -743 602 -55 0 -97 -6
-135 -21z m408 -1061 l272 -272 -288 -288 -287 -287 -275 275 -275 275 285
285 c157 157 287 285 290 285 3 0 128 -123 278 -273z m-2233 -2777 l-1610
-1610 -275 275 -275 275 1610 1610 1610 1610 275 -275 275 -275 -1610 -1610z
m-2201 -1659 l189 -190 -34 -16 c-70 -32 -634 -273 -636 -271 -4 4 282 666
287 666 3 0 90 -85 194 -189z"/>
<path d="M750 8311 c-89 -28 -171 -97 -211 -179 l-24 -47 -3 -3652 -2 -3652
20 -55 c25 -65 95 -143 160 -177 l45 -24 3675 0 3675 0 54 30 c68 37 125 102
151 171 20 54 20 69 20 1909 0 1852 0 1854 -21 1910 -25 67 -94 141 -164 175
-72 35 -190 39 -268 10 -80 -30 -157 -106 -185 -183 l-22 -58 0 -1654 0 -1655
-3235 0 -3235 0 0 3235 0 3235 1628 0 c1737 0 1692 -1 1770 47 50 31 104 88
130 138 37 72 43 197 12 278 -26 69 -94 142 -165 177 l-50 25 -1865 2 c-1026
1 -1876 -2 -1890 -6z"/>
</g>
</svg>
